<?xml version="1.0" encoding="UTF-8" standalone="no"?>
<svg width="383px" height="133px" viewBox="0 0 383 133" version="1.1" xmlns="http://www.w3.org/2000/svg" xmlns:xlink="http://www.w3.org/1999/xlink" xmlns:sketch="http://www.bohemiancoding.com/sketch/ns">
    <!-- Generator: Sketch 3.3.2 (12043) - http://www.bohemiancoding.com/sketch -->
    <title>Slice 1</title>
    <desc>Created with Sketch.</desc>
    <defs></defs>
    <g id="Page-1" stroke="none" stroke-width="1" fill="none" fill-rule="evenodd" sketch:type="MSPage">
        <g id="Imported-Layers" sketch:type="MSLayerGroup" fill="#FFFFFF">
            <path d="M16.272,103.959 L16.272,88.911 C16.272,86.366 16.031,84.56 15.553,83.489 C15.072,82.42 14.076,81.885 12.564,81.885 C11.31,81.885 10.297,82.227 9.524,82.908 C8.748,83.592 8.158,84.467 7.752,85.536 L7.752,103.959 L0.561,103.959 L0.561,76.298 L6.149,76.298 L6.979,79.949 L7.199,79.949 C8.047,78.768 9.125,77.736 10.436,76.851 C11.744,75.966 13.432,75.522 15.498,75.522 C17.268,75.522 18.715,75.883 19.84,76.602 C20.965,77.321 21.84,78.529 22.469,80.226 C23.317,78.787 24.405,77.645 25.732,76.795 C27.06,75.947 28.664,75.522 30.545,75.522 C32.094,75.522 33.412,75.708 34.5,76.076 C35.588,76.445 36.473,77.081 37.156,77.984 C37.838,78.889 38.346,80.097 38.678,81.608 C39.01,83.121 39.176,85.038 39.176,87.362 L39.176,103.959 L31.984,103.959 L31.984,88.413 C31.984,86.237 31.752,84.606 31.293,83.518 C30.83,82.43 29.807,81.885 28.223,81.885 C26.93,81.885 25.906,82.236 25.15,82.937 C24.395,83.638 23.832,84.596 23.465,85.814 L23.465,103.959 L16.272,103.959" id="Fill-1" sketch:type="MSShapeGroup"></path>
            <path d="M43.49,90.128 C43.49,85.444 44.633,81.839 46.92,79.312 C49.207,76.787 52.416,75.522 56.547,75.522 C58.76,75.522 60.676,75.874 62.301,76.574 C63.922,77.275 65.268,78.262 66.338,79.534 C67.408,80.807 68.211,82.347 68.746,84.153 C69.279,85.961 69.547,87.952 69.547,90.128 C69.547,94.813 68.414,98.418 66.144,100.944 C63.877,103.471 60.676,104.733 56.547,104.733 C54.334,104.733 52.416,104.383 50.793,103.682 C49.17,102.982 47.814,101.995 46.726,100.723 C45.639,99.45 44.826,97.91 44.293,96.104 C43.758,94.297 43.49,92.305 43.49,90.128 L43.49,90.128 Z M50.904,90.128 C50.904,91.346 51.014,92.471 51.236,93.503 C51.457,94.536 51.789,95.44 52.23,96.214 C52.674,96.988 53.254,97.588 53.975,98.012 C54.693,98.436 55.551,98.648 56.547,98.648 C58.428,98.648 59.828,97.966 60.752,96.601 C61.672,95.237 62.135,93.079 62.135,90.128 C62.135,87.583 61.709,85.527 60.862,83.96 C60.014,82.393 58.574,81.608 56.547,81.608 C54.775,81.608 53.393,82.272 52.396,83.6 C51.402,84.928 50.904,87.104 50.904,90.128 L50.904,90.128 Z" id="Fill-2" sketch:type="MSShapeGroup"></path>
            <path d="M74.25,65.232 L81.442,65.232 L81.442,78.511 L81.662,78.511 C82.438,77.625 83.434,76.925 84.651,76.408 C85.867,75.891 87.213,75.634 88.689,75.634 C92.008,75.634 94.543,76.768 96.295,79.036 C98.047,81.304 98.924,84.762 98.924,89.409 C98.924,94.388 97.697,98.169 95.244,100.75 C92.791,103.332 89.426,104.623 85.148,104.623 C82.787,104.623 80.631,104.43 78.676,104.042 C76.721,103.654 75.246,103.222 74.25,102.742 L74.25,65.232 L74.25,65.232 Z M86.586,81.719 C85.26,81.719 84.18,82.06 83.35,82.742 C82.52,83.426 81.885,84.412 81.442,85.702 L81.442,97.763 C82.031,98.059 82.668,98.261 83.35,98.371 C84.033,98.482 84.762,98.537 85.535,98.537 C87.49,98.537 88.975,97.827 89.988,96.407 C91.004,94.988 91.51,92.729 91.51,89.63 C91.51,84.356 89.869,81.719 86.586,81.719 L86.586,81.719 Z" id="Fill-3" sketch:type="MSShapeGroup"></path>
            <path d="M103.238,68.497 C103.238,67.428 103.635,66.515 104.428,65.759 C105.221,65.003 106.319,64.624 107.719,64.624 C109.121,64.624 110.254,65.003 111.121,65.759 C111.988,66.515 112.422,67.428 112.422,68.497 C112.422,69.567 111.988,70.461 111.121,71.18 C110.254,71.899 109.121,72.259 107.719,72.259 C106.319,72.259 105.221,71.899 104.428,71.18 C103.635,70.461 103.238,69.567 103.238,68.497 L103.238,68.497 Z M104.289,76.298 L111.482,76.298 L111.482,103.959 L104.289,103.959 L104.289,76.298 Z" id="Fill-4" sketch:type="MSShapeGroup"></path>
            <path d="M125.645,94.665 C125.645,95.956 125.811,96.896 126.143,97.486 C126.475,98.076 127.008,98.371 127.746,98.371 C128.19,98.371 128.623,98.335 129.047,98.261 C129.471,98.188 129.996,98.021 130.623,97.763 L131.399,103.405 C130.807,103.701 129.904,103.995 128.687,104.291 C127.471,104.586 126.215,104.733 124.926,104.733 C122.822,104.733 121.219,104.244 120.112,103.268 C119.006,102.291 118.453,100.677 118.453,98.427 L118.453,65.232 L125.645,65.232 L125.645,94.665" id="Fill-5" sketch:type="MSShapeGroup"></path>
            <path d="M156.348,101.58 C155.24,102.465 153.738,103.212 151.838,103.82 C149.94,104.43 147.92,104.733 145.781,104.733 C141.318,104.733 138.055,103.434 135.988,100.833 C133.922,98.233 132.891,94.665 132.891,90.128 C132.891,85.26 134.053,81.608 136.375,79.174 C138.699,76.74 141.963,75.522 146.168,75.522 C147.57,75.522 148.934,75.708 150.262,76.076 C151.59,76.445 152.769,77.054 153.803,77.901 C154.834,78.751 155.664,79.893 156.293,81.332 C156.92,82.77 157.232,84.56 157.232,86.698 C157.232,87.473 157.185,88.303 157.094,89.188 C157.002,90.073 156.863,90.995 156.68,91.954 L140.082,91.954 C140.193,94.277 140.793,96.029 141.881,97.21 C142.969,98.391 144.73,98.98 147.164,98.98 C148.676,98.98 150.031,98.75 151.23,98.288 C152.428,97.827 153.342,97.357 153.969,96.878 L156.348,101.58 L156.348,101.58 Z M146.057,81.276 C144.176,81.276 142.783,81.839 141.881,82.964 C140.977,84.089 140.434,85.592 140.248,87.473 L150.539,87.473 C150.686,85.481 150.381,83.951 149.625,82.881 C148.869,81.812 147.68,81.276 146.057,81.276 L146.057,81.276 Z" id="Fill-6" sketch:type="MSShapeGroup"></path>
            <path d="M163.152,65.232 L167.578,65.232 L167.578,79.008 L167.801,79.008 C168.648,77.939 169.726,77.109 171.037,76.518 C172.346,75.929 173.775,75.634 175.324,75.634 C178.9,75.634 181.584,76.777 183.373,79.064 C185.162,81.351 186.057,84.891 186.057,89.686 C186.057,94.518 184.875,98.188 182.516,100.695 C180.156,103.203 176.836,104.457 172.559,104.457 C170.492,104.457 168.621,104.235 166.943,103.793 C165.264,103.351 164,102.871 163.152,102.355 L163.152,65.232 L163.152,65.232 Z M174.549,79.506 C172.705,79.506 171.211,80.024 170.069,81.056 C168.924,82.088 168.096,83.545 167.578,85.426 L167.578,99.367 C168.279,99.773 169.127,100.078 170.123,100.28 C171.119,100.483 172.152,100.584 173.223,100.584 C175.729,100.584 177.73,99.699 179.225,97.929 C180.719,96.158 181.465,93.393 181.465,89.63 C181.465,88.192 181.336,86.846 181.078,85.592 C180.818,84.338 180.414,83.268 179.861,82.383 C179.307,81.498 178.598,80.798 177.73,80.28 C176.863,79.765 175.803,79.506 174.549,79.506 L174.549,79.506 Z" id="Fill-7" sketch:type="MSShapeGroup"></path>
            <path d="M206.084,80.558 C204.976,80.189 203.926,80.004 202.93,80.004 C201.344,80.004 200.09,80.438 199.168,81.304 C198.246,82.171 197.674,83.268 197.453,84.596 L197.453,103.959 L193.028,103.959 L193.028,76.298 L196.125,76.298 L196.955,79.672 L197.176,79.672 C197.877,78.419 198.715,77.45 199.694,76.768 C200.67,76.086 201.914,75.744 203.428,75.744 C204.496,75.744 205.695,75.929 207.023,76.298 L206.084,80.558" id="Fill-8" sketch:type="MSShapeGroup"></path>
            <path d="M211.395,78.345 C212.795,77.496 214.428,76.87 216.291,76.464 C218.153,76.058 220.098,75.854 222.127,75.854 C224.043,75.854 225.584,76.113 226.746,76.629 C227.908,77.147 228.793,77.818 229.402,78.648 C230.01,79.479 230.416,80.391 230.619,81.387 C230.82,82.383 230.924,83.379 230.924,84.375 C230.924,86.588 230.867,88.745 230.758,90.848 C230.647,92.949 230.592,94.941 230.592,96.822 C230.592,98.188 230.647,99.478 230.758,100.695 C230.867,101.912 231.07,103.037 231.365,104.069 L228.102,104.069 L226.94,100.197 L226.664,100.197 C226.332,100.714 225.916,101.221 225.418,101.719 C224.92,102.216 224.32,102.659 223.621,103.046 C222.92,103.434 222.107,103.757 221.186,104.015 C220.264,104.271 219.213,104.401 218.033,104.401 C216.852,104.401 215.756,104.217 214.74,103.849 C213.727,103.48 212.85,102.954 212.113,102.272 C211.375,101.59 210.795,100.769 210.371,99.809 C209.945,98.852 209.734,97.763 209.734,96.546 C209.734,94.923 210.067,93.567 210.73,92.479 C211.395,91.392 212.324,90.525 213.524,89.879 C214.723,89.234 216.16,88.772 217.84,88.496 C219.518,88.22 221.371,88.081 223.398,88.081 L224.92,88.081 C225.418,88.081 225.926,88.118 226.441,88.192 C226.553,87.085 226.607,86.09 226.607,85.204 C226.607,83.177 226.201,81.756 225.39,80.944 C224.578,80.134 223.103,79.728 220.965,79.728 C220.338,79.728 219.664,79.775 218.945,79.87 C218.227,79.965 217.488,80.098 216.733,80.268 C215.977,80.44 215.258,80.648 214.574,80.894 C213.893,81.141 213.293,81.416 212.777,81.719 L211.395,78.345 L211.395,78.345 Z M219.25,100.529 C220.281,100.529 221.205,100.391 222.015,100.114 C222.826,99.838 223.527,99.487 224.119,99.063 C224.707,98.64 225.197,98.169 225.584,97.652 C225.971,97.136 226.258,96.639 226.441,96.158 L226.441,91.566 C225.926,91.53 225.398,91.503 224.865,91.483 C224.33,91.466 223.805,91.456 223.289,91.456 C222.144,91.456 221.029,91.521 219.941,91.649 C218.854,91.779 217.895,92.019 217.065,92.369 C216.234,92.72 215.57,93.198 215.072,93.808 C214.574,94.416 214.326,95.182 214.326,96.104 C214.326,97.394 214.787,98.454 215.709,99.284 C216.631,100.114 217.811,100.529 219.25,100.529 L219.25,100.529 Z" id="Fill-9" sketch:type="MSShapeGroup"></path>
            <path d="M237.34,100.086 L250.119,82.493 L252.443,80.17 L237.34,80.17 L237.34,76.298 L257.035,76.298 L257.035,80.17 L244.192,97.929 L241.932,100.086 L257.035,100.086 L257.035,103.959 L237.34,103.959 L237.34,100.086" id="Fill-10" sketch:type="MSShapeGroup"></path>
            <path d="M264.004,67.889 C264.004,67.04 264.289,66.311 264.862,65.703 C265.433,65.095 266.162,64.79 267.047,64.79 C267.932,64.79 268.687,65.095 269.317,65.703 C269.941,66.311 270.256,67.04 270.256,67.889 C270.256,68.737 269.941,69.437 269.317,69.99 C268.687,70.544 267.932,70.82 267.047,70.82 C266.162,70.82 265.433,70.544 264.862,69.99 C264.289,69.437 264.004,68.737 264.004,67.889 L264.004,67.889 Z M264.945,76.298 L269.37,76.298 L269.37,103.959 L264.945,103.959 L264.945,76.298 Z" id="Fill-11" sketch:type="MSShapeGroup"></path>
            <path d="M283.754,97.154 C283.754,98.445 283.977,99.367 284.418,99.92 C284.861,100.474 285.488,100.75 286.299,100.75 C286.778,100.75 287.295,100.714 287.848,100.64 C288.402,100.566 289.028,100.4 289.729,100.142 L290.227,103.627 C289.637,103.923 288.817,104.161 287.766,104.347 C286.715,104.53 285.801,104.623 285.027,104.623 C283.367,104.623 282.002,104.152 280.934,103.212 C279.863,102.272 279.328,100.677 279.328,98.427 L279.328,65.232 L283.754,65.232 L283.754,97.154" id="Fill-12" sketch:type="MSShapeGroup"></path>
            <path d="M173.207,131.811 C172.766,132.15 172.203,132.386 171.525,132.519 C170.848,132.651 170.123,132.718 169.357,132.718 C168.428,132.718 167.557,132.559 166.746,132.242 C165.934,131.925 165.226,131.441 164.621,130.792 C164.016,130.143 163.537,129.314 163.184,128.303 C162.828,127.293 162.652,126.094 162.652,124.707 C162.652,123.262 162.848,122.033 163.238,121.023 C163.629,120.012 164.146,119.185 164.787,118.544 C165.43,117.902 166.148,117.434 166.945,117.139 C167.742,116.844 168.553,116.696 169.379,116.696 C170.264,116.696 170.986,116.744 171.547,116.84 C172.108,116.936 172.588,117.065 172.987,117.228 L172.543,118.865 C171.836,118.511 170.824,118.334 169.512,118.334 C168.906,118.334 168.308,118.444 167.719,118.666 C167.129,118.887 166.602,119.249 166.137,119.75 C165.672,120.252 165.299,120.908 165.02,121.72 C164.738,122.531 164.6,123.526 164.6,124.707 C164.6,125.77 164.732,126.698 164.998,127.495 C165.264,128.292 165.629,128.956 166.094,129.487 C166.559,130.018 167.104,130.416 167.73,130.682 C168.358,130.947 169.039,131.08 169.777,131.08 C170.441,131.08 171.02,131.014 171.514,130.881 C172.008,130.748 172.426,130.579 172.766,130.372 L173.207,131.811" id="Fill-13" sketch:type="MSShapeGroup"></path>
            <path d="M174.713,124.707 C174.713,122.125 175.258,120.145 176.35,118.766 C177.442,117.386 178.998,116.696 181.02,116.696 C182.111,116.696 183.055,116.888 183.852,117.272 C184.649,117.655 185.309,118.197 185.832,118.898 C186.355,119.599 186.742,120.439 186.994,121.421 C187.244,122.402 187.371,123.497 187.371,124.707 C187.371,127.289 186.82,129.269 185.721,130.649 C184.623,132.028 183.055,132.718 181.02,132.718 C179.941,132.718 179.01,132.525 178.221,132.143 C177.43,131.759 176.774,131.217 176.25,130.516 C175.726,129.815 175.34,128.975 175.088,127.993 C174.838,127.012 174.713,125.917 174.713,124.707 L174.713,124.707 Z M176.66,124.707 C176.66,125.563 176.744,126.374 176.914,127.142 C177.084,127.908 177.346,128.583 177.699,129.166 C178.055,129.749 178.508,130.214 179.061,130.561 C179.613,130.907 180.268,131.08 181.02,131.08 C182.391,131.08 183.469,130.561 184.25,129.52 C185.031,128.479 185.424,126.876 185.424,124.707 C185.424,123.866 185.338,123.059 185.168,122.284 C184.998,121.509 184.732,120.831 184.371,120.248 C184.01,119.665 183.553,119.2 183,118.854 C182.447,118.507 181.785,118.334 181.02,118.334 C179.662,118.334 178.596,118.854 177.822,119.894 C177.047,120.934 176.66,122.538 176.66,124.707 L176.66,124.707 Z" id="Fill-14" sketch:type="MSShapeGroup"></path>
            <path d="M193.279,122.317 L192.084,120.082 L191.996,120.082 L192.217,122.317 L192.217,132.452 L190.49,132.452 L190.49,116.718 L191.465,116.718 L198.877,127.053 L200.029,129.177 L200.139,129.177 L199.897,127.053 L199.897,116.962 L201.621,116.962 L201.621,132.695 L200.648,132.695 L193.279,122.317" id="Fill-15" sketch:type="MSShapeGroup"></path>
            <path d="M205.383,116.962 L213.815,116.962 L213.815,118.6 L207.221,118.6 L207.221,123.888 L213.373,123.888 L213.373,125.525 L207.221,125.525 L207.221,132.452 L205.383,132.452 L205.383,116.962" id="Fill-16" sketch:type="MSShapeGroup"></path>
            <path d="M216.824,116.962 L225.256,116.962 L225.256,118.6 L218.66,118.6 L218.66,123.667 L224.701,123.667 L224.701,125.305 L218.66,125.305 L218.66,130.814 L225.365,130.814 L225.365,132.452 L216.824,132.452 L216.824,116.962" id="Fill-17" sketch:type="MSShapeGroup"></path>
            <path d="M228.686,117.116 C229.246,117.014 229.89,116.933 230.621,116.873 C231.352,116.815 232.02,116.784 232.625,116.784 C233.303,116.784 233.948,116.858 234.561,117.006 C235.172,117.153 235.711,117.397 236.176,117.736 C236.64,118.076 237.014,118.518 237.293,119.063 C237.574,119.61 237.715,120.273 237.715,121.056 C237.715,122.266 237.383,123.246 236.719,123.999 C236.055,124.751 235.213,125.253 234.195,125.504 L235.258,126.322 L239.108,132.452 L236.961,132.452 L232.691,125.77 L230.521,125.437 L230.521,132.452 L228.686,132.452 L228.686,117.116 L228.686,117.116 Z M232.668,118.378 L232.07,118.378 C231.863,118.378 231.664,118.386 231.473,118.4 C231.281,118.415 231.102,118.43 230.932,118.444 C230.762,118.459 230.625,118.481 230.521,118.511 L230.521,124.22 L232.248,124.22 C233.265,124.22 234.107,123.97 234.772,123.468 C235.436,122.967 235.766,122.185 235.766,121.122 C235.766,120.325 235.494,119.669 234.947,119.152 C234.402,118.637 233.643,118.378 232.668,118.378 L232.668,118.378 Z" id="Fill-18" sketch:type="MSShapeGroup"></path>
            <path d="M241.852,116.962 L250.283,116.962 L250.283,118.6 L243.69,118.6 L243.69,123.667 L249.73,123.667 L249.73,125.305 L243.69,125.305 L243.69,130.814 L250.395,130.814 L250.395,132.452 L241.852,132.452 L241.852,116.962" id="Fill-19" sketch:type="MSShapeGroup"></path>
            <path d="M256.5,122.317 L255.307,120.082 L255.217,120.082 L255.44,122.317 L255.44,132.452 L253.713,132.452 L253.713,116.718 L254.685,116.718 L262.1,127.053 L263.25,129.177 L263.362,129.177 L263.117,127.053 L263.117,116.962 L264.844,116.962 L264.844,132.695 L263.869,132.695 L256.5,122.317" id="Fill-20" sketch:type="MSShapeGroup"></path>
            <path d="M278.52,131.811 C278.078,132.15 277.515,132.386 276.838,132.519 C276.16,132.651 275.436,132.718 274.67,132.718 C273.74,132.718 272.869,132.559 272.059,132.242 C271.246,131.925 270.539,131.441 269.933,130.792 C269.328,130.143 268.85,129.314 268.496,128.303 C268.14,127.293 267.965,126.094 267.965,124.707 C267.965,123.262 268.16,122.033 268.551,121.023 C268.942,120.012 269.459,119.185 270.1,118.544 C270.742,117.902 271.461,117.434 272.258,117.139 C273.055,116.844 273.865,116.696 274.691,116.696 C275.576,116.696 276.299,116.744 276.859,116.84 C277.42,116.936 277.9,117.065 278.299,117.228 L277.855,118.865 C277.148,118.511 276.137,118.334 274.824,118.334 C274.219,118.334 273.621,118.444 273.031,118.666 C272.441,118.887 271.914,119.249 271.449,119.75 C270.984,120.252 270.611,120.908 270.332,121.72 C270.051,122.531 269.912,123.526 269.912,124.707 C269.912,125.77 270.045,126.698 270.311,127.495 C270.576,128.292 270.941,128.956 271.406,129.487 C271.871,130.018 272.416,130.416 273.043,130.682 C273.67,130.947 274.351,131.08 275.09,131.08 C275.754,131.08 276.332,131.014 276.826,130.881 C277.32,130.748 277.738,130.579 278.078,130.372 L278.52,131.811" id="Fill-21" sketch:type="MSShapeGroup"></path>
            <path d="M281.242,116.962 L289.674,116.962 L289.674,118.6 L283.078,118.6 L283.078,123.667 L289.119,123.667 L289.119,125.305 L283.078,125.305 L283.078,130.814 L289.783,130.814 L289.783,132.452 L281.242,132.452 L281.242,116.962" id="Fill-22" sketch:type="MSShapeGroup"></path>
            <path d="M375.261,53.326 L368.517,53.326 C367.444,53.326 367.036,53.736 367.036,54.803 L367.036,66.918 C367.036,67.984 367.909,68.857 368.982,68.857 L374.798,68.857 C375.87,68.857 376.745,67.984 376.745,66.918 L376.745,54.803 C376.745,53.736 376.335,53.326 375.261,53.326 L375.261,53.326 Z M371.895,67.783 C371.482,67.783 371.138,67.447 371.138,67.025 C371.138,66.617 371.482,66.275 371.895,66.275 C372.304,66.275 372.644,66.617 372.644,67.025 C372.644,67.447 372.304,67.783 371.895,67.783 L371.895,67.783 Z M368.61,55.291 L375.171,55.291 L375.171,64.475 L368.61,64.475 L368.61,55.291 Z" id="Fill-23" sketch:type="MSShapeGroup"></path>
            <path d="M380.128,30.457 L371.587,30.457 C370.231,30.457 369.716,30.975 369.716,32.326 L369.716,47.658 C369.716,49.012 370.822,50.115 372.177,50.115 L379.54,50.115 C380.9,50.115 382.005,49.012 382.005,47.658 L382.005,32.326 C382.005,30.975 381.488,30.457 380.128,30.457 L380.128,30.457 Z M375.866,48.758 C375.343,48.758 374.907,48.332 374.907,47.797 C374.907,47.283 375.343,46.848 375.866,46.848 C376.382,46.848 376.814,47.283 376.814,47.797 C376.814,48.332 376.382,48.758 375.866,48.758 L375.866,48.758 Z M371.706,32.943 L380.013,32.943 L380.013,44.566 L371.706,44.566 L371.706,32.943 Z" id="Fill-24" sketch:type="MSShapeGroup"></path>
            <path d="M343.65,82.352 L334.224,82.352 C332.728,82.352 332.157,82.926 332.157,84.414 L332.157,101.338 C332.157,102.832 333.378,104.049 334.874,104.049 L342.999,104.049 C344.499,104.049 345.722,102.832 345.722,101.338 L345.722,84.414 C345.722,82.926 345.15,82.352 343.65,82.352 L343.65,82.352 Z M338.947,102.551 C338.368,102.551 337.888,102.08 337.888,101.492 C337.888,100.922 338.368,100.443 338.947,100.443 C339.513,100.443 339.991,100.922 339.991,101.492 C339.991,102.08 339.513,102.551 338.947,102.551 L338.947,102.551 Z M334.357,85.096 L343.523,85.096 L343.523,97.926 L334.357,97.926 L334.357,85.096 Z" id="Fill-25" sketch:type="MSShapeGroup"></path>
            <path d="M326.556,53.643 L317.132,53.643 C315.636,53.643 315.064,54.215 315.064,55.705 L315.064,72.627 C315.064,74.123 316.284,75.34 317.783,75.34 L325.907,75.34 C327.407,75.34 328.63,74.123 328.63,72.627 L328.63,55.705 C328.63,54.215 328.057,53.643 326.556,53.643 L326.556,53.643 Z M321.855,73.842 C321.277,73.842 320.796,73.371 320.796,72.783 C320.796,72.213 321.277,71.734 321.855,71.734 C322.421,71.734 322.899,72.213 322.899,72.783 C322.899,73.371 322.421,73.842 321.855,73.842 L321.855,73.842 Z M317.263,56.387 L326.431,56.387 L326.431,69.217 L317.263,69.217 L317.263,56.387 Z" id="Fill-26" sketch:type="MSShapeGroup"></path>
            <path d="M298.577,36.551 L281.654,36.551 C280.159,36.551 278.942,37.772 278.942,39.269 L278.942,47.393 C278.942,48.895 280.159,50.115 281.654,50.115 L298.577,50.115 C300.068,50.115 300.638,49.545 300.638,48.045 L300.638,38.619 C300.638,37.123 300.068,36.551 298.577,36.551 L298.577,36.551 Z M281.501,44.385 C280.911,44.385 280.44,43.908 280.44,43.342 C280.44,42.764 280.911,42.283 281.501,42.283 C282.069,42.283 282.548,42.764 282.548,43.342 C282.548,43.908 282.069,44.385 281.501,44.385 L281.501,44.385 Z M285.066,38.75 L297.896,38.75 L297.896,47.916 L285.066,47.916 L285.066,38.75 Z" id="Fill-27" sketch:type="MSShapeGroup"></path>
            <path d="M313.288,0.885 L305.821,0.885 C304.638,0.885 304.183,1.338 304.183,2.518 L304.183,15.926 C304.183,17.107 305.152,18.074 306.337,18.074 L312.774,18.074 C313.962,18.074 314.931,17.107 314.931,15.926 L314.931,2.518 C314.931,1.338 314.478,0.885 313.288,0.885 L313.288,0.885 Z M309.563,16.887 C309.106,16.887 308.724,16.514 308.724,16.047 C308.724,15.598 309.106,15.215 309.563,15.215 C310.013,15.215 310.392,15.598 310.392,16.047 C310.392,16.514 310.013,16.887 309.563,16.887 L309.563,16.887 Z M305.925,3.057 L313.189,3.057 L313.189,13.221 L305.925,13.221 L305.925,3.057 Z" id="Fill-28" sketch:type="MSShapeGroup"></path>
            <path d="M298.997,15.801 L291.53,15.801 C290.345,15.801 289.892,16.254 289.892,17.434 L289.892,30.842 C289.892,32.024 290.858,32.99 292.046,32.99 L298.482,32.99 C299.669,32.99 300.638,32.024 300.638,30.842 L300.638,17.434 C300.638,16.254 300.187,15.801 298.997,15.801 L298.997,15.801 Z M295.271,31.801 C294.814,31.801 294.433,31.428 294.433,30.963 C294.433,30.512 294.814,30.133 295.271,30.133 C295.72,30.133 296.099,30.512 296.099,30.963 C296.099,31.428 295.72,31.801 295.271,31.801 L295.271,31.801 Z M291.634,17.975 L298.898,17.975 L298.898,28.139 L291.634,28.139 L291.634,17.975 Z" id="Fill-29" sketch:type="MSShapeGroup"></path>
            <path d="M347.198,10.246 L333.79,10.246 C332.61,10.246 332.157,10.699 332.157,11.887 L332.157,19.356 C332.157,20.541 332.61,20.992 333.79,20.992 L347.198,20.992 C348.38,20.992 349.347,20.025 349.347,18.84 L349.347,12.4 C349.347,11.213 348.38,10.246 347.198,10.246 L347.198,10.246 Z M334.331,11.988 L344.493,11.988 L344.493,19.25 L334.331,19.25 L334.331,11.988 Z M347.319,16.453 C346.868,16.453 346.489,16.072 346.489,15.613 C346.489,15.164 346.868,14.787 347.319,14.787 C347.784,14.787 348.158,15.164 348.158,15.613 C348.158,16.072 347.784,16.453 347.319,16.453 L347.319,16.453 Z" id="Fill-30" sketch:type="MSShapeGroup"></path>
            <path d="M364.056,24.551 L334.286,24.551 C333.118,24.551 332.157,25.51 332.157,26.684 L332.157,47.984 C332.157,49.158 333.118,50.115 334.286,50.115 L364.056,50.115 C365.228,50.115 366.188,49.158 366.188,47.984 L366.188,26.684 C366.188,25.51 365.228,24.551 364.056,24.551 L364.056,24.551 Z M361.397,37.088 L361.397,46.443 C361.397,47.106 360.855,47.646 360.19,47.646 L335.884,47.639 C335.222,47.639 334.679,47.096 334.679,46.434 L334.679,28.223 C334.679,27.557 335.222,27.018 335.884,27.018 L360.193,27.027 C360.855,27.027 361.397,27.566 361.397,28.232 L361.397,37.088 L361.397,37.088 Z M363.737,38.25 C363.23,38.25 362.821,37.84 362.821,37.338 C362.821,36.834 363.23,36.414 363.737,36.414 C364.245,36.414 364.653,36.834 364.653,37.338 C364.653,37.84 364.245,38.25 363.737,38.25 L363.737,38.25 Z" id="Fill-31" sketch:type="MSShapeGroup"></path>
            <path d="M361.271,53.326 L334.395,53.326 C333.165,53.326 332.157,54.283 332.157,55.453 L332.157,76.715 C332.157,77.887 333.165,78.846 334.395,78.846 L361.271,78.846 C362.499,78.846 363.509,77.887 363.509,76.715 L363.509,55.453 C363.509,54.283 362.499,53.326 361.271,53.326 L361.271,53.326 Z M333.802,66.799 C333.407,66.799 333.089,66.475 333.089,66.084 C333.089,65.693 333.407,65.375 333.802,65.375 C334.196,65.375 334.513,65.693 334.513,66.084 C334.513,66.475 334.196,66.799 333.802,66.799 L333.802,66.799 Z M360.687,62.914 L360.687,75.215 C360.687,75.662 360.323,76.025 359.876,76.025 L336.493,76.019 C336.048,76.019 335.685,75.656 335.685,75.209 L335.685,56.959 C335.685,56.512 336.048,56.148 336.493,56.148 L359.878,56.154 C360.323,56.154 360.687,56.518 360.687,56.965 L360.687,62.914 L360.687,62.914 Z" id="Fill-32" sketch:type="MSShapeGroup"></path>
            <path d="M326.589,21.602 L306.222,21.602 C305.1,21.602 304.183,22.518 304.183,23.635 L304.183,48.08 C304.183,49.199 305.1,50.115 306.222,50.115 L326.589,50.115 C327.71,50.115 328.63,49.199 328.63,48.08 L328.63,23.635 C328.63,22.518 327.71,21.602 326.589,21.602 L326.589,21.602 Z M316.403,49.143 C315.995,49.143 315.661,48.809 315.661,48.396 C315.661,47.984 315.995,47.654 316.403,47.654 C316.812,47.654 317.152,47.984 317.152,48.396 C317.152,48.809 316.812,49.143 316.403,49.143 L316.403,49.143 Z M325.714,45.369 C325.714,45.953 325.239,46.43 324.653,46.43 L308.152,46.43 C307.568,46.43 307.093,45.953 307.093,45.369 L307.099,25.451 C307.099,24.869 307.573,24.391 308.159,24.391 L324.663,24.391 C325.247,24.391 325.722,24.869 325.722,25.451 L325.714,45.369 L325.714,45.369 Z" id="Fill-33" sketch:type="MSShapeGroup"></path>
        </g>
    </g>
</svg>