<?xml version="1.0" encoding="UTF-8" standalone="no"?>
<svg viewBox="0 0 90 94" version="1.1" xmlns="http://www.w3.org/2000/svg" xmlns:xlink="http://www.w3.org/1999/xlink" xmlns:sketch="http://www.bohemiancoding.com/sketch/ns">
    <!-- Generator: Sketch 3.3.2 (12043) - http://www.bohemiancoding.com/sketch -->
    <title>ticket1</title>
    <desc>Created with Sketch.</desc>
    <defs></defs>
    <g id="Page-1" stroke="none" stroke-width="1" fill="none" fill-rule="evenodd" sketch:type="MSPage">
        <g id="Group" sketch:type="MSLayerGroup" transform="translate(45.038130, 47.000000) rotate(-330.000000) translate(-45.038130, -47.000000) translate(0.538130, 26.000000)" fill="#FF9329">
            <path d="M85.762,7.34 C84.276,7.34 82.927,6.73 81.945,5.742 C80.977,4.74 80.378,3.365 80.378,1.849 L80.378,0 L7.197,0 L7.197,1.849 C7.197,3.365 6.599,4.74 5.631,5.742 C4.649,6.73 3.3,7.34 1.814,7.34 L0,7.34 L0,33.803 L1.849,33.803 C3.365,33.803 4.741,34.401 5.743,35.369 C6.73,36.352 7.34,37.7 7.34,39.187 L7.34,41 L10,41 L10,41.01 L77.575,41.01 L77.575,41 L80.235,41 L80.235,39.187 C80.235,37.7 80.845,36.352 81.833,35.369 C82.835,34.401 84.21,33.803 85.726,33.803 L87.575,33.803 L87.575,7.34 L85.762,7.34 L85.762,7.34 Z M83.878,26 L83.878,30.313 C82.078,30.684 80.469,31.57 79.219,32.806 C77.975,34.016 77.082,35.572 76.695,37.311 L70.624,37.311 L70.624,31.884 C70.624,30.863 69.794,30.034 68.774,30.034 C67.751,30.034 66.922,30.863 66.922,31.884 L66.922,37.311 L20.653,37.311 L20.653,31.884 C20.653,30.863 19.824,30.034 18.802,30.034 C17.782,30.034 16.952,30.863 16.952,31.884 L16.952,37.311 L10.88,37.311 C10.493,35.572 9.601,34.016 8.356,32.806 C7.107,31.57 5.498,30.684 3.698,30.313 L3.698,10.877 C5.433,10.49 6.986,9.599 8.194,8.356 C9.429,7.107 10.315,5.498 10.686,3.699 L16.953,3.699 L16.953,9.372 C16.953,10.393 17.782,11.221 18.803,11.221 C19.824,11.221 20.654,10.393 20.654,9.372 L20.654,3.699 L66.922,3.699 L66.922,9.372 C66.922,10.393 67.751,11.221 68.773,11.221 C69.794,11.221 70.622,10.393 70.622,9.372 L70.622,3.699 L76.889,3.699 C77.261,5.498 78.147,7.107 79.382,8.356 C80.59,9.599 82.143,10.49 83.878,10.877 L83.878,26 L83.878,26 Z" id="Imported-Layers" sketch:type="MSShapeGroup"></path>
            <path d="M48.3925781,32 L43.8662109,32 L43.8662109,19.6074219 L43.9101562,17.5712891 L43.9833984,15.3447266 C43.2314416,16.0966834 42.7089858,16.5898426 42.4160156,16.8242188 L39.9550781,18.8017578 L37.7724609,16.0771484 L44.671875,10.5839844 L48.3925781,10.5839844 L48.3925781,32 Z" id="1" sketch:type="MSShapeGroup"></path>
        </g>
    </g>
</svg>