<?xml version="1.0" encoding="UTF-8" standalone="no"?>
<svg viewBox="0 0 90 94" version="1.1" xmlns="http://www.w3.org/2000/svg" xmlns:xlink="http://www.w3.org/1999/xlink" xmlns:sketch="http://www.bohemiancoding.com/sketch/ns">
    <!-- Generator: Sketch 3.3.2 (12043) - http://www.bohemiancoding.com/sketch -->
    <title>ticket12</title>
    <desc>Created with Sketch.</desc>
    <defs>
        <path id="path-1" d="M1,2 L1,67.1920241 L85.0469198,67.1920241 C85.0469198,67.1920241 83,78 107,76 L107,0 L1,2 Z"></path>
    </defs>
    <g id="Page-1" stroke="none" stroke-width="1" fill="none" fill-rule="evenodd" sketch:type="MSPage">
        <g id="Group" sketch:type="MSLayerGroup" transform="translate(-7.000000, -14.000000)">
            <path d="M92.762,73.34 C91.276,73.34 89.927,72.73 88.945,71.742 C87.977,70.74 87.378,69.365 87.378,67.849 L87.378,66 L14.197,66 L14.197,67.849 C14.197,69.365 13.599,70.74 12.631,71.742 C11.649,72.73 10.3,73.34 8.814,73.34 L7,73.34 L7,99.803 L8.849,99.803 C10.365,99.803 11.741,100.401 12.743,101.369 C13.73,102.352 14.34,103.7 14.34,105.187 L14.34,107 L17,107 L17,107.01 L84.575,107.01 L84.575,107 L87.235,107 L87.235,105.187 C87.235,103.7 87.845,102.352 88.833,101.369 C89.835,100.401 91.21,99.803 92.726,99.803 L94.575,99.803 L94.575,73.34 L92.762,73.34 L92.762,73.34 Z M90.878,92 L90.878,96.313 C89.078,96.684 87.469,97.57 86.219,98.806 C84.975,100.016 84.082,101.572 83.695,103.311 L77.624,103.311 L77.624,97.884 C77.624,96.863 76.794,96.034 75.774,96.034 C74.751,96.034 73.922,96.863 73.922,97.884 L73.922,103.311 L27.653,103.311 L27.653,97.884 C27.653,96.863 26.824,96.034 25.802,96.034 C24.782,96.034 23.952,96.863 23.952,97.884 L23.952,103.311 L17.88,103.311 C17.493,101.572 16.601,100.016 15.356,98.806 C14.107,97.57 12.498,96.684 10.698,96.313 L10.698,76.877 C12.433,76.49 13.986,75.599 15.194,74.356 C16.429,73.107 17.315,71.498 17.686,69.699 L23.953,69.699 L23.953,75.372 C23.953,76.393 24.782,77.221 25.803,77.221 C26.824,77.221 27.654,76.393 27.654,75.372 L27.654,69.699 L73.922,69.699 L73.922,75.372 C73.922,76.393 74.751,77.221 75.773,77.221 C76.794,77.221 77.622,76.393 77.622,75.372 L77.622,69.699 L83.889,69.699 C84.261,71.498 85.147,73.107 86.382,74.356 C87.59,75.599 89.143,76.49 90.878,76.877 L90.878,92 L90.878,92 Z" id="Imported-Layers-Copy-3" fill="#FF9329" sketch:type="MSShapeGroup"></path>
            <g id="Imported-Layers-Copy">
                <mask id="mask-2" sketch:name="Mask" fill="white">
                    <use xlink:href="#path-1"></use>
                </mask>
                <use id="Mask" sketch:type="MSShapeGroup" xlink:href="#path-1"></use>
                <path d="M95.0639402,59.801093 C93.7770265,59.058093 92.9137582,57.8553175 92.5573212,56.5086844 C92.2200087,55.1569269 92.3887594,53.666642 93.1467594,52.3537475 L94.0712594,50.7524665 L30.6946544,14.1619665 L29.7701544,15.7632475 C29.0121544,17.076142 27.8067712,17.9679269 26.4674586,18.3516844 C25.1230216,18.7163175 23.6497534,18.570093 22.3628396,17.827093 L20.7918695,16.920093 L7.56036953,39.8377232 L9.1616505,40.7622232 C10.474545,41.5202232 11.367196,42.7261064 11.7509534,44.065419 C12.1142205,45.410222 11.968496,46.8826242 11.224996,48.170404 L10.318496,49.7405081 L12.6221236,51.0705081 L12.6171236,51.0791683 L71.1387902,84.8666683 L71.1437902,84.8580081 L73.4474178,86.1880081 L74.3539178,84.617904 C75.0974178,83.3301242 76.2996933,82.467722 77.6468264,82.110419 C78.9985839,81.7731064 80.4883688,81.9427232 81.8012633,82.7007232 L83.4025443,83.6252232 L96.6340443,60.707593 L95.0639402,59.801093 L95.0639402,59.801093 Z M84.1023484,75.019127 L81.9458484,78.7542946 C80.2015026,78.17559 78.3650677,78.1383885 76.664536,78.5837959 C74.9822004,79.0096867 73.4308397,79.9107222 72.2261879,81.2232404 L66.9685476,78.1877404 L69.6820476,73.4878205 C70.1925476,72.6036086 69.8882466,71.4706735 69.0049007,70.9606735 C68.1189567,70.4491735 66.9865216,70.7526086 66.4760216,71.6368205 L63.7625216,76.3367404 L23.6923922,53.2022404 L26.4058922,48.5023205 C26.9163922,47.6181086 26.6129571,46.4856735 25.7278792,45.9746735 C24.8445333,45.4646735 23.7112322,45.7676086 23.2007322,46.6518205 L20.4872322,51.3517404 L15.2287259,48.3157404 C15.7630741,46.6162222 15.7685794,44.8226867 15.2953778,43.1522959 C14.8317121,41.4573885 13.8812772,39.88559 12.5079315,38.6642946 L22.2259315,21.8322248 C23.9219856,22.364573 25.712423,22.3694444 27.3800817,21.8969748 C29.0741231,21.4328091 30.6459216,20.4823742 31.866717,19.1098945 L37.2940982,22.2433945 L34.4575982,27.1563566 C33.9470982,28.0405685 34.2510333,29.1721376 35.1352452,29.6826376 C36.0194571,30.1931376 37.1522582,29.8910685 37.6627582,29.0068566 L40.4992582,24.0938945 L80.5685216,47.2278945 L77.7320216,52.1408566 C77.2215216,53.0250685 77.5254567,54.1566376 78.4105346,54.6676376 C79.2947466,55.1781376 80.4258156,54.8750685 80.9363156,53.9908566 L83.7728156,49.0778945 L89.2001968,52.2113945 C88.6228583,53.9553742 88.5856568,55.7918091 89.0306981,57.4909748 C89.4553568,59.1714444 90.3547943,60.719573 91.6638484,61.9222248 L84.1023484,75.019127 L84.1023484,75.019127 Z" fill="#FF9329" sketch:type="MSShapeGroup" mask="url(#mask-2)"></path>
            </g>
            <path d="M59.671875,62 L44.7011719,62 L44.7011719,58.8505859 L50.0771484,53.4160156 C51.6689533,51.7851481 52.7089819,50.6547883 53.1972656,50.0249023 C53.6855493,49.3950164 54.0371083,48.8115261 54.2519531,48.2744141 C54.4667979,47.737302 54.5742188,47.1806669 54.5742188,46.6044922 C54.5742188,45.7451129 54.3374047,45.1054708 53.8637695,44.6855469 C53.3901344,44.2656229 52.7578165,44.0556641 51.9667969,44.0556641 C51.1367146,44.0556641 50.3310586,44.2460918 49.5498047,44.6269531 C48.7685508,45.0078144 47.9531292,45.5498012 47.1035156,46.2529297 L44.6425781,43.3378906 C45.6972709,42.4394486 46.5712856,41.8046894 47.2646484,41.4335938 C47.9580113,41.0624981 48.7148396,40.7768565 49.5351562,40.5766602 C50.3554729,40.3764638 51.2734324,40.2763672 52.2890625,40.2763672 C53.6269598,40.2763672 54.8085886,40.5205054 55.8339844,41.0087891 C56.8593801,41.4970728 57.6552706,42.1806597 58.2216797,43.0595703 C58.7880888,43.938481 59.0712891,44.9443303 59.0712891,46.0771484 C59.0712891,47.0634815 58.897951,47.9887652 58.5512695,48.8530273 C58.2045881,49.7172895 57.6674841,50.6035111 56.9399414,51.5117188 C56.2123987,52.4199264 54.9306732,53.7138588 53.0947266,55.3935547 L50.3408203,57.9863281 L50.3408203,58.1914062 L59.671875,58.1914062 L59.671875,62 Z" id="2" fill="#FF9329" sketch:type="MSShapeGroup" transform="translate(52.633301, 51.138184) rotate(-330.000000) translate(-52.633301, -51.138184) "></path>
            <path d="M55.3925781,98 L50.8662109,98 L50.8662109,85.6074219 L50.9101562,83.5712891 L50.9833984,81.3447266 C50.2314416,82.0966834 49.7089858,82.5898426 49.4160156,82.8242188 L46.9550781,84.8017578 L44.7724609,82.0771484 L51.671875,76.5839844 L55.3925781,76.5839844 L55.3925781,98 Z" id="1-copy-3" fill="#FF9329" sketch:type="MSShapeGroup"></path>
        </g>
    </g>
</svg>